<mxfile host="app.diagrams.net" modified="2024-04-13T09:34:41.035Z" agent="Mozilla/5.0 (Windows NT 10.0; Win64; x64) AppleWebKit/537.36 (KHTML, like Gecko) Chrome/123.0.0.0 Safari/537.36" version="24.1.0" etag="wYBsNdtnEvY1KCGFEvAT" type="github">
  <diagram name="PÃ¡gina-1" id="aE2UFPRCGu0Mh1PRR9l4">
    <mxGraphModel>
      <root>
        <mxCell id="0" />
        <mxCell id="1" parent="0" />
      </root>
    </mxGraphModel>
  </diagram>
</mxfile>
